<?xml version="1.0" encoding="utf-8"?>
<!-- Generator: Adobe Illustrator 23.0.3, SVG Export Plug-In . SVG Version: 6.00 Build 0)  -->
<svg version="1.1" id="Logo" xmlns="http://www.w3.org/2000/svg" xmlns:xlink="http://www.w3.org/1999/xlink" x="0px" y="0px"
	 viewBox="0 0 512 512" style="enable-background:new 0 0 512 512;" xml:space="preserve">
<style type="text/css">
	.st0{fill:#FF0000;}
	.st1{fill:#FFFFFF;}
</style>
<g>
	<path class="st0" d="M402,512H110C49.2,512,0,462.8,0,402V110C0,49.2,49.2,0,110,0h292c60.8,0,110,49.2,110,110v292
		C512,462.8,462.8,512,402,512z"/>
	<g>
		<path class="st1" d="M331,244.5c-21.3,0-39.3,13.7-45.7,32.7l-39.7,86.7c-0.5,1.3-1.6,2-3.1,2.1c-1.5,0.1-2.7-0.7-3.4-2.5
			c-6-23.2-19.6-46.1-41-68.7c-21.4-22.6-44.4-39-69.1-49.2c-42-17.4-85-23-129-16.9v104.1c4-0.9,8.1-1.7,12.2-2.3
			c26.4-3.9,52.3-0.6,77.6,9.9c25.3,10.5,45.9,26.4,61.9,47.8c15.9,21.4,25.8,45.3,29.7,71.8c2.6,17.6,1.9,34.9-1.9,52h114.6
			c5.7-13.5,11.9-28.3,18.7-44.8c22.7-54.8,51.1-127.3,61.5-154.3c3.1-6.3,4.8-13.3,4.8-20.7C379.2,265.8,357.6,244.5,331,244.5z"/>
	</g>
	<circle class="st1" cx="386.6" cy="159.7" r="52.2"/>
</g>
</svg>
