<svg xmlns="http://www.w3.org/2000/svg" width="22" height="20.952" viewBox="0 0 21 20">
  <defs>
    <style>
      .cls-1 {
        fill: #333;
        fill-rule: evenodd;
      }
    </style>
  </defs>
  <path id="Icon_Cart" data-name="Icon Cart" class="cls-1" d="M20.172,5.863l-2.988,8.789a0.579,0.579,0,0,1-.225.293,0.615,0.615,0,0,1-.361.117H8.16A0.559,0.559,0,0,1,7.906,15,0.624,0.624,0,0,1,7.7,14.838a0.7,0.7,0,0,1-.127-0.225L4.117,1.918a1.211,1.211,0,0,0-.2-0.439,0.48,0.48,0,0,0-.186-0.166,0.541,0.541,0,0,0-.146-0.02H0.914a0.634,0.634,0,0,1-.3-0.078A0.532,0.532,0,0,1,.387.99,0.634,0.634,0,0,1,.309.687,0.608,0.608,0,0,1,.484.238,0.584,0.584,0,0,1,.914.062H3.59A1.617,1.617,0,0,1,3.98.111,2.2,2.2,0,0,1,4.439.3a1.454,1.454,0,0,1,.5.469,2.683,2.683,0,0,1,.371.8L6.324,5.023H19.586a0.58,0.58,0,0,1,.5.264,0.628,0.628,0,0,1,.088.576h0Zm-1.484.41H6.656l1.992,7.539h7.52ZM16.5,17.875a1.567,1.567,0,1,1-.459-1.1A1.505,1.505,0,0,1,16.5,17.875ZM9.625,16.342a1.393,1.393,0,0,1,.293.088,1.511,1.511,0,0,1,.264.146,1.683,1.683,0,0,1,.43.43,1.519,1.519,0,0,1,.146.264,1.393,1.393,0,0,1,.088.293,1.7,1.7,0,0,1,.029.313,1.561,1.561,0,0,1-2.666,1.1,1.5,1.5,0,0,1-.459-1.1,1.523,1.523,0,0,1,.205-0.781,1.575,1.575,0,0,1,.566-0.566,1.52,1.52,0,0,1,.791-0.215A1.7,1.7,0,0,1,9.625,16.342Z"/>
</svg>
