<svg xmlns="http://www.w3.org/2000/svg" width="24" height="24" viewBox="0 0 24 24">
  <defs>
    <style>
      .cls-1 {
        fill: #444;
        fill-rule: evenodd;
      }
    </style>
  </defs>
  <path id="_" data-name="" class="cls-1" d="M12.249,5.9a5.682,5.682,0,0,1,2.92.787A5.857,5.857,0,0,1,17.3,8.82a5.81,5.81,0,0,1,0,5.84,5.858,5.858,0,0,1-2.133,2.133,5.81,5.81,0,0,1-5.84,0A5.858,5.858,0,0,1,7.2,14.66a5.81,5.81,0,0,1,0-5.84A5.857,5.857,0,0,1,9.329,6.687,5.682,5.682,0,0,1,12.249,5.9Zm0,9.648a3.814,3.814,0,0,0,3.809-3.809,3.814,3.814,0,0,0-3.809-3.809A3.814,3.814,0,0,0,8.44,11.74,3.814,3.814,0,0,0,12.249,15.548Zm7.465-9.9a1.371,1.371,0,1,0-2.336.965,1.318,1.318,0,0,0,.965.406,1.237,1.237,0,0,0,.939-0.406A1.583,1.583,0,0,0,19.713,5.646Zm3.859,1.371q0.051,1.422.051,4.723t-0.076,4.748A9.574,9.574,0,0,1,23.116,19a5.944,5.944,0,0,1-3.605,3.605A9.576,9.576,0,0,1,17,23.039q-1.447.076-4.748,0.076T7.5,23.039a8.291,8.291,0,0,1-2.514-.482A5.413,5.413,0,0,1,2.778,21.21,5.919,5.919,0,0,1,1.381,19,9.577,9.577,0,0,1,.95,16.488Q0.874,15.04.874,11.74T0.95,6.992a9.577,9.577,0,0,1,.432-2.514A5.944,5.944,0,0,1,4.987.873,9.577,9.577,0,0,1,7.5.441Q8.948,0.365,12.249.365T17,0.441A9.576,9.576,0,0,1,19.51.873a5.944,5.944,0,0,1,3.605,3.605A10.33,10.33,0,0,1,23.573,7.017ZM21.135,18.443a10.689,10.689,0,0,0,.406-2.742q0.051-1.117.051-3.149V10.927q0-2.082-.051-3.148a10.186,10.186,0,0,0-.406-2.742,3.665,3.665,0,0,0-2.184-2.184,10.189,10.189,0,0,0-2.742-.406Q15.092,2.4,13.061,2.4H11.436q-2.031,0-3.148.051a10.692,10.692,0,0,0-2.742.406A3.665,3.665,0,0,0,3.362,5.037a10.189,10.189,0,0,0-.406,2.742Q2.9,8.9,2.9,10.927v1.625q0,2.031.051,3.149a10.692,10.692,0,0,0,.406,2.742,3.85,3.85,0,0,0,2.184,2.184,10.693,10.693,0,0,0,2.742.406q1.117,0.051,3.148.051h1.625q2.082,0,3.148-.051a10.19,10.19,0,0,0,2.742-.406A3.85,3.85,0,0,0,21.135,18.443Z"/>
</svg>
