<svg xmlns="http://www.w3.org/2000/svg" width="22" height="22" viewBox="0 0 21 21">
  <defs>
    <style>
      .cls-1 {
        fill: #333;
        fill-rule: evenodd;
      }
    </style>
  </defs>
  <path id="Icon_Cart_" data-name="Icon Cart " class="cls-1" d="M8.2,2.508a5.324,5.324,0,0,0-1.68,1.24,2.156,2.156,0,0,0-.645,1.377V8.25a7.32,7.32,0,0,0,.5,2.451,4.637,4.637,0,0,0,1.4,2.1,1.157,1.157,0,0,1,.459,1.123,1.189,1.189,0,0,1-.713.986l-5.488,2.6a0.765,0.765,0,0,0-.527.723V19.5l17.481-.02V18.27a1.562,1.562,0,0,0-.02-0.254,0.538,0.538,0,0,0-.068-0.2,0.739,0.739,0,0,0-.1-0.127,0.722,0.722,0,0,0-.107-0.088,0.987,0.987,0,0,0-.1-0.059,0.637,0.637,0,0,0-.117-0.039L13.023,14.93a1.217,1.217,0,0,1-.723-1,1.279,1.279,0,0,1,.2-0.811A1.461,1.461,0,0,1,12.77,12.8a4.258,4.258,0,0,0,1.387-2.07,7.724,7.724,0,0,0,.469-2.48V5.125a1.85,1.85,0,0,0-.391-1.045,4.6,4.6,0,0,0-1-1.016A5.549,5.549,0,0,0,11.822,2.3,4.485,4.485,0,0,0,10.25,2h0A4.628,4.628,0,0,0,8.2,2.508ZM10.25,0.75a5.732,5.732,0,0,1,2.031.391A6.64,6.64,0,0,1,14.1,2.156a5.713,5.713,0,0,1,1.279,1.416,2.907,2.907,0,0,1,.5,1.553V8.25a8.984,8.984,0,0,1-.576,2.988,5.444,5.444,0,0,1-1.748,2.539L19,16.375l0.117,0.039a2.01,2.01,0,0,1,.313.176q0.176,0.117.361,0.264a1.354,1.354,0,0,1,.313.352,0.761,0.761,0,0,1,.127.4V19.5A1.234,1.234,0,0,1,19,20.731H1.5a1.208,1.208,0,0,1-.889-0.361A1.184,1.184,0,0,1,.25,19.5V17.606a0.7,0.7,0,0,1,.137-0.381,1.553,1.553,0,0,1,.3-0.342,3.858,3.858,0,0,1,.381-0.273q0.215-.137.293-0.176A1.092,1.092,0,0,1,1.5,16.375l5.488-2.6A5.826,5.826,0,0,1,5.221,11.17a8.746,8.746,0,0,1-.6-2.92V5.125a3.274,3.274,0,0,1,.82-2.041A6.24,6.24,0,0,1,7.584,1.4,5.944,5.944,0,0,1,10.25.75h0Z"/>
</svg>
