<svg xmlns="http://www.w3.org/2000/svg" width="29" height="23" viewBox="0 0 29 23">
  <defs>
    <style>
      .cls-1 {
        fill: #333;
        fill-rule: evenodd;
      }
    </style>
  </defs>
  <path id="Icon_Cart_копия_2" data-name="Icon Cart копия 2" class="cls-1" d="M28.031,4.719a1.159,1.159,0,0,0-.984-0.547H11.023a1.158,1.158,0,0,0-.848.355,1.222,1.222,0,0,0-.355.9,1.214,1.214,0,0,0,1.2,1.2H25.352l-2.57,8.2H11.188L6.266,1.656a1.262,1.262,0,0,0-1.2-.82H1.453a1.158,1.158,0,0,0-.848.355,1.156,1.156,0,0,0-.355.848,1.219,1.219,0,0,0,.355.9,1.155,1.155,0,0,0,.848.355H4.242L9.055,16.148A1.569,1.569,0,0,0,10.7,17.3H23.273a1.587,1.587,0,0,0,1.641-1.258L28.2,5.813a1.239,1.239,0,0,0-.164-1.094h0ZM12.719,19.484a1.67,1.67,0,0,1,.6,1.367,1.944,1.944,0,0,1-.6,1.422,1.884,1.884,0,0,1-1.367.6,2.055,2.055,0,0,1-2.023-2.023,1.668,1.668,0,0,1,.6-1.367,1.945,1.945,0,0,1,1.422-.6,1.887,1.887,0,0,1,1.367.6h0Zm10.937,0a1.67,1.67,0,0,1,.6,1.367,2.055,2.055,0,0,1-2.023,2.023,1.667,1.667,0,0,1-1.367-.6,1.941,1.941,0,0,1-.6-1.422,1.668,1.668,0,0,1,.6-1.367,1.669,1.669,0,0,1,1.367-.6,1.946,1.946,0,0,1,1.422.6h0Z"/>
</svg>
