<svg xmlns="http://www.w3.org/2000/svg" width="22" height="22" viewBox="0 0 21 21">
  <defs>
    <style>
      .cls-1 {
        fill: #333;
        fill-rule: evenodd;
      }
    </style>
  </defs>
  <path id="Icon_Search_" data-name="Icon Search " class="cls-1" d="M20.27,20.115a0.613,0.613,0,0,1-.186.449,0.6,0.6,0,0,1-.439.186,0.618,0.618,0,0,1-.449-0.2l-6.055-6.094a7.573,7.573,0,0,1-5.117,1.914,7.782,7.782,0,0,1-6.768-3.887A7.67,7.67,0,0,1,.211,8.563,7.782,7.782,0,0,1,4.1,1.795,7.654,7.654,0,0,1,8.014.75a7.813,7.813,0,0,1,6.777,3.887,7.674,7.674,0,0,1,1.045,3.926,7.558,7.558,0,0,1-1.816,5l6.074,6.113A0.6,0.6,0,0,1,20.27,20.115ZM9.527,14.969a6.374,6.374,0,0,0,1.387-.5,6.929,6.929,0,0,0,1.211-.772,6.061,6.061,0,0,0,1.016-1.025,7.26,7.26,0,0,0,.772-1.221,6.367,6.367,0,0,0,.5-1.387,6.508,6.508,0,0,0,.176-1.5,6.44,6.44,0,0,0-.879-3.291,6.568,6.568,0,0,0-2.392-2.4,6.405,6.405,0,0,0-3.3-.889,6.4,6.4,0,0,0-3.3.889,6.566,6.566,0,0,0-2.393,2.4,6.441,6.441,0,0,0-.879,3.291,6.439,6.439,0,0,0,.879,3.291,6.562,6.562,0,0,0,2.393,2.4,6.419,6.419,0,0,0,3.311.889A6.5,6.5,0,0,0,9.527,14.969Z"/>
</svg>
