<svg xmlns="http://www.w3.org/2000/svg" width="24" height="22.5" viewBox="0 0 16 15">
  <defs>
    <style>
      .cls-1 {
        fill-rule: evenodd;
      }
    </style>
  </defs>
  <path id="star" class="cls-1" d="M7.07,1.048A0.832,0.832,0,0,1,7.549.611a0.931,0.931,0,0,1,.629,0,0.832,0.832,0,0,1,.479.438l1.777,3.609,3.992,0.574a0.829,0.829,0,0,1,.56.328,0.914,0.914,0,0,1,.191.6,0.839,0.839,0,0,1-.26.574l-2.9,2.816L12.7,13.545a0.863,0.863,0,0,1-.123.615,0.8,0.8,0,0,1-.506.369,0.843,0.843,0,0,1-.629-0.082L7.863,12.588,4.281,14.447a0.843,0.843,0,0,1-.629.082,0.8,0.8,0,0,1-.506-0.369,0.864,0.864,0,0,1-.123-0.615L3.707,9.552l-2.9-2.816a0.839,0.839,0,0,1-.26-0.574A0.914,0.914,0,0,1,.74,5.56,0.83,0.83,0,0,1,1.3,5.232l3.992-.574Z"/>
</svg>
